<?xml version="1.0" encoding="UTF-8" standalone="no"?>
<svg
   xmlns:osb="http://www.openswatchbook.org/uri/2009/osb"
   xmlns:dc="http://purl.org/dc/elements/1.1/"
   xmlns:cc="http://creativecommons.org/ns#"
   xmlns:rdf="http://www.w3.org/1999/02/22-rdf-syntax-ns#"
   xmlns:svg="http://www.w3.org/2000/svg"
   xmlns="http://www.w3.org/2000/svg"
   xmlns:sodipodi="http://sodipodi.sourceforge.net/DTD/sodipodi-0.dtd"
   xmlns:inkscape="http://www.inkscape.org/namespaces/inkscape"
   enable-background="new 0 0 100 100"
   height="100px"
   id="Layer_1"
   version="1.1"
   viewBox="0 0 100 100"
   width="100px"
   xml:space="preserve"
   inkscape:version="0.91 r13725"
   sodipodi:docname="icon2.svg"><metadata
     id="metadata25"><rdf:RDF><cc:Work
         rdf:about=""><dc:format>image/svg+xml</dc:format><dc:type
           rdf:resource="http://purl.org/dc/dcmitype/StillImage" /><dc:title></dc:title></cc:Work></rdf:RDF></metadata><defs
     id="defs23"><linearGradient
       id="linearGradient4156"
       osb:paint="solid"><stop
         style="stop-color:#c6542d;stop-opacity:1;"
         offset="0"
         id="stop4158" /></linearGradient></defs><sodipodi:namedview
     pagecolor="#ffffff"
     bordercolor="#666666"
     borderopacity="1"
     objecttolerance="10"
     gridtolerance="10"
     guidetolerance="10"
     inkscape:pageopacity="0"
     inkscape:pageshadow="2"
     inkscape:window-width="1440"
     inkscape:window-height="847"
     id="namedview21"
     showgrid="false"
     inkscape:zoom="4.72"
     inkscape:cx="42.007901"
     inkscape:cy="31.196561"
     inkscape:window-x="0"
     inkscape:window-y="0"
     inkscape:window-maximized="1"
     inkscape:current-layer="g4206"
     inkscape:showpageshadow="false"
     showborder="false" /><g
     id="g3"><g
       id="g5"><g
         id="g7"><g
           id="g9" /></g><g
         id="g11" /></g></g><g
     id="g4206"><circle
       r="29.06086"
       cy="54.25"
       cx="50"
       id="path5656"
       style="fill:#aa4400;fill-opacity:1;stroke:#aa4400;stroke-width:1.15466547;stroke-opacity:1" /><path
       d="m 82.795,37.4 1.465,-0.845 c 0.407,-0.235 0.547,-0.76 0.312,-1.167 l -3.646,-6.315 c -0.235,-0.407 -0.76,-0.547 -1.167,-0.312 l -1.949,1.125 c -0.049,0.029 -0.082,0.073 -0.124,0.109 C 71.95,23.519 64,19.072 55,17.851 L 55,15 l -3,0 0,-2 2,0 0,-4 -8,0 0,4 2,0 0,2 -3,0 0,2.851 C 36,19.089 27.839,23.64 22.085,30.256 22.013,30.108 21.913,29.973 21.76,29.885 L 19.811,28.76 c -0.406,-0.235 -0.932,-0.094 -1.167,0.312 l -3.646,6.315 c -0.235,0.407 -0.094,0.932 0.312,1.167 l 1.795,1.036 C 14.489,42.663 13,48.409 13,54.5 c 0,20.402 16.598,37 37,37 20.402,0 37,-16.598 37,-37 0,-6.167 -1.525,-11.981 -4.205,-17.1 z M 50,87.5 c -18.196,0 -33,-14.804 -33,-33 0,-18.196 14.804,-33 33,-33 18.196,0 33,14.804 33,33 0,18.196 -14.804,33 -33,33 z"
       id="path19"
       style="fill:#aa4400"
       inkscape:connector-curvature="0" /><rect
       y="6.7919421"
       x="40.076271"
       height="6.3436503"
       width="19.847458"
       id="rect4143"
       style="fill:#aa4400;fill-opacity:1;stroke:none;stroke-opacity:1" /><g
       style="fill:#ffffff"
       id="g4272"
       transform="matrix(0.65337162,0,0,0.88245992,87.513315,19.770103)"><circle
         r="3.1834786"
         cy="13.371927"
         cx="-57.414974"
         id="path4215-5"
         style="fill:#ffffff;fill-opacity:1;stroke:none;stroke-opacity:1" /><rect
         y="13.441134"
         x="-60.598454"
         height="27.643343"
         width="6.3669572"
         id="rect4243"
         style="fill:#ffffff;fill-opacity:1;stroke:none;stroke-opacity:1" /></g></g></svg>